<?xml version="1.0" encoding="utf-8"?>
<!-- Generator: Adobe Illustrator 23.0.1, SVG Export Plug-In . SVG Version: 6.00 Build 0)  -->
<svg version="1.1" id="Layer_1" xmlns="http://www.w3.org/2000/svg" xmlns:xlink="http://www.w3.org/1999/xlink" x="0px" y="0px"
	 viewBox="0 0 511.52 555.6" style="enable-background:new 0 0 511.52 555.6;" xml:space="preserve">
<style type="text/css">
	.st0{fill:#FF6C0D;}
</style>
<g>
	<g>
		<g>
			<path class="st0" d="M511.55,131.7c0-2.12-0.46-4.24-1.39-6.21c-1.89-4.01-5.54-6.7-9.53-7.51L261.79,2.12
				c-3.89-1.88-8.45-1.88-12.34,0L8.25,119.03c-4.69,2.22-7.74,6.92-7.98,12.19v0.12c0,0.11,0,0.24,0,0.46v293.42
				c0,5.39,3.05,10.32,7.98,12.66l241.2,116.91c0.13,0,0.13,0,0.23,0.1c0.35,0.12,0.71,0.24,1.08,0.46c0.1,0,0.22,0.13,0.47,0.13
				c0.35,0.13,0.7,0.23,1.04,0.35c0.13,0,0.24,0.13,0.36,0.13c0.36,0.12,0.81,0.12,1.17,0.22c0.1,0,0.23,0,0.35,0
				c0.48,0,1.05,0.12,1.52,0.12c0.48,0,1.06,0,1.53-0.12c0.12,0,0.23,0,0.35,0c0.35,0,0.81-0.1,1.17-0.22
				c0.12,0,0.23-0.13,0.36-0.13c0.35-0.12,0.7-0.22,1.05-0.35c0.13,0,0.24-0.13,0.48-0.13c0.35-0.11,0.71-0.22,1.07-0.46
				c0.12,0,0.12,0,0.21-0.1l241.93-117.26c4.8-2.36,7.97-7.28,7.97-12.66V132.04C511.55,131.93,511.55,131.8,511.55,131.7z
				 M255.56,30.37L464.75,131.8l-77.03,37.41L178.51,67.79L255.56,30.37z M255.56,233.26L46.35,131.8l99.9-48.43l209.22,101.44
				L255.56,233.26z M28.41,154.45l213.08,103.3v261.87L28.41,416.31V154.45z M269.62,519.62V257.75l100.03-48.53v68.47
				c0,7.74,6.34,14.08,14.09,14.08c7.73,0,14.07-6.34,14.07-14.08v-82.2l85.6-41.52v261.86L269.62,519.62z"/>
		</g>
	</g>
</g>
<g>
	<g>
		<polygon class="st0" points="93.85,369.04 83.23,363.79 83.23,238.88 93.85,244.13 		"/>
		<polygon class="st0" points="107.3,375.69 102.35,373.24 102.35,248.33 107.3,250.79 		"/>
		<polygon class="st0" points="134.2,388.99 129.25,386.54 129.25,261.64 134.2,264.09 		"/>
		<polygon class="st0" points="141.28,392.49 139.16,391.44 139.16,266.54 141.28,267.59 		"/>
		<polygon class="st0" points="125,384.44 112.96,378.49 112.96,253.59 125,259.54 		"/>
		<polygon class="st0" points="156.85,400.2 146.24,394.94 146.24,270.04 156.85,275.29 		"/>
		<polygon class="st0" points="170.3,406.85 165.35,404.4 165.35,279.49 170.3,281.94 		"/>
		<polygon class="st0" points="188,415.6 175.97,409.65 175.97,284.74 188,290.69 		"/>
	</g>
</g>
</svg>
