<?xml version="1.0" encoding="utf-8"?>
<!-- Generator: Adobe Illustrator 23.0.1, SVG Export Plug-In . SVG Version: 6.00 Build 0)  -->
<svg version="1.1" id="Layer_1" xmlns="http://www.w3.org/2000/svg" xmlns:xlink="http://www.w3.org/1999/xlink" x="0px" y="0px"
	 viewBox="0 0 511.52 555.6" style="enable-background:new 0 0 511.52 555.6;" xml:space="preserve">
<style type="text/css">
	.st0{fill:#CCCCCC;}
</style>
<g>
	<g>
		<path class="st0" d="M511.29,130.99c0-2.12-0.46-4.24-1.39-6.21c-1.89-4.01-5.54-6.7-9.53-7.51L261.52,1.41
			c-3.89-1.88-8.45-1.88-12.34,0L7.98,118.33c-4.69,2.22-7.74,6.92-7.98,12.19v0.12c0,0.11,0,0.24,0,0.46v293.42
			c0,5.39,3.05,10.32,7.98,12.66l241.2,116.91c0.13,0,0.13,0,0.23,0.1c0.35,0.12,0.71,0.24,1.08,0.46c0.1,0,0.22,0.13,0.47,0.13
			c0.35,0.13,0.7,0.23,1.04,0.35c0.13,0,0.24,0.13,0.36,0.13c0.36,0.12,0.81,0.12,1.17,0.22c0.1,0,0.23,0,0.35,0
			c0.48,0,1.05,0.12,1.52,0.12c0.48,0,1.06,0,1.53-0.12c0.12,0,0.23,0,0.35,0c0.35,0,0.81-0.1,1.17-0.22c0.12,0,0.23-0.13,0.36-0.13
			c0.35-0.12,0.7-0.22,1.05-0.35c0.13,0,0.24-0.13,0.48-0.13c0.35-0.11,0.71-0.22,1.07-0.46c0.12,0,0.12,0,0.21-0.1l241.93-117.26
			c4.8-2.36,7.97-7.28,7.97-12.66V131.34C511.29,131.22,511.29,131.09,511.29,130.99z M255.3,29.66l209.19,101.43l-77.03,37.41
			L178.24,67.08L255.3,29.66z M255.3,232.55L46.09,131.09l99.9-48.43L355.21,184.1L255.3,232.55z M28.14,153.74l213.08,103.3v261.87
			L28.14,415.6V153.74z M269.36,518.91V257.04l100.03-48.53v68.47c0,7.74,6.34,14.08,14.09,14.08c7.73,0,14.07-6.34,14.07-14.08
			v-82.2l85.6-41.52v261.86L269.36,518.91z"/>
	</g>
</g>
</svg>
