<?xml version="1.0" encoding="utf-8"?>
<!-- Generator: Adobe Illustrator 23.0.1, SVG Export Plug-In . SVG Version: 6.00 Build 0)  -->
<svg version="1.1" id="Layer_1" xmlns="http://www.w3.org/2000/svg" xmlns:xlink="http://www.w3.org/1999/xlink" x="0px" y="0px"
	 viewBox="0 0 95.73 65.26" style="enable-background:new 0 0 95.73 65.26;" xml:space="preserve">
<style type="text/css">
	.st0{fill:#4D4D4D;}
</style>
<path class="st0" d="M78.27,47.72c-2.34,0-4.56,0.92-6.24,2.57c-1.68,1.68-2.61,3.86-2.61,6.2c0,2.34,0.92,4.52,2.61,6.2
	c1.7,1.66,3.9,2.57,6.24,2.57c4.8,0,8.69-3.94,8.69-8.77S83.06,47.72,78.27,47.72z M78.27,61.37c-2.69,0-4.95-2.22-4.95-4.87
	c0-2.65,2.26-4.87,4.95-4.87c2.65,0,4.8,2.18,4.8,4.87C83.06,59.18,80.92,61.37,78.27,61.37z M80.53,18.5
	c-0.35-0.33-0.82-0.51-1.31-0.51h-10c-1.07,0-1.95,0.88-1.95,1.95v15.98c0,1.07,0.88,1.95,1.95,1.95h15.87
	c1.07,0,1.95-0.88,1.95-1.95v-10.7c0-0.55-0.23-1.07-0.64-1.44L80.53,18.5z M83.14,33.98H71.17V21.87h7.29l4.68,4.21V33.98z
	 M30.66,47.72c-2.34,0-4.56,0.92-6.24,2.57c-1.68,1.68-2.61,3.86-2.61,6.2c0,2.34,0.92,4.52,2.61,6.2c1.7,1.66,3.9,2.57,6.24,2.57
	c4.8,0,8.69-3.94,8.69-8.77S35.46,47.72,30.66,47.72z M30.66,61.37c-2.69,0-4.95-2.22-4.95-4.87c0-2.65,2.26-4.87,4.95-4.87
	c2.65,0,4.8,2.18,4.8,4.87C35.46,59.18,33.31,61.37,30.66,61.37z M17.66,50.12h-3.92v-5.19c0-1.07-0.88-1.95-1.95-1.95
	s-1.95,0.88-1.95,1.95v7.13c0,1.07,0.88,1.95,1.95,1.95h5.87c1.07,0,1.95-0.88,1.95-1.95C19.61,51,18.73,50.12,17.66,50.12z
	 M27.54,39.49c0-1.07-0.88-1.95-1.95-1.95H1.95C0.88,37.54,0,38.42,0,39.49s0.88,1.95,1.95,1.95H25.6
	C26.67,41.44,27.54,40.59,27.54,39.49z M5.91,32.46l23.65,0.14c1.07,0,1.95-0.86,1.97-1.93c0.02-1.09-0.86-1.97-1.93-1.97
	L5.95,28.56c-0.02,0-0.02,0-0.02,0c-1.07,0-1.95,0.86-1.95,1.93C3.96,31.58,4.83,32.46,5.91,32.46z M9.88,23.61h23.65
	c1.07,0,1.95-0.88,1.95-1.95c0-1.07-0.88-1.95-1.95-1.95H9.88c-1.07,0-1.95,0.88-1.95,1.95C7.93,22.73,8.81,23.61,9.88,23.61z
	 M95.01,20.98L95.01,20.98L81.05,9.42c-0.35-0.29-0.78-0.45-1.25-0.45H63.39V1.95c0-1.07-0.88-1.95-1.95-1.95H11.79
	c-1.07,0-1.95,0.88-1.95,1.95v14.27c0,1.07,0.88,1.95,1.95,1.95s1.95-0.88,1.95-1.95V3.9h45.77v46.22H43.53
	c-1.07,0-1.95,0.88-1.95,1.95c0,1.07,0.88,1.95,1.95,1.95h23.8c1.07,0,1.95-0.88,1.95-1.95c0-1.07-0.88-1.95-1.95-1.95h-3.92V12.87
	h15.71l12.71,10.53L91.7,50.08h-2.03c-1.07,0-1.95,0.88-1.95,1.95c0,1.07,0.88,1.95,1.95,1.95h3.96c1.07,0,1.95-0.86,1.95-1.93
	l0.16-29.55C95.71,21.91,95.46,21.35,95.01,20.98z"/>
</svg>
