<?xml version="1.0" encoding="utf-8"?>
<!-- Generator: Adobe Illustrator 23.0.1, SVG Export Plug-In . SVG Version: 6.00 Build 0)  -->
<svg version="1.1" id="Layer_1" xmlns="http://www.w3.org/2000/svg" xmlns:xlink="http://www.w3.org/1999/xlink" x="0px" y="0px"
	 viewBox="0 0 217.32 217.32" style="enable-background:new 0 0 217.32 217.32;" xml:space="preserve">
<style type="text/css">
	.st0{fill:#FFFFFF;}
	.st1{fill:#CCCCCC;}
	.st2{fill:#63E8A8;}
	.st3{fill:#63E8A8;stroke:#63E8A8;stroke-miterlimit:10;}
</style>
<g>
	<g>
		<g>
			<g>
				<g>
					<circle class="st0" cx="109.64" cy="109.47" r="103.6"/>
					<path class="st1" d="M109.64,218.13c-29.02,0-56.31-11.3-76.83-31.83C12.28,165.78,0.98,138.5,0.98,109.47
						s11.3-56.31,31.83-76.83C53.33,12.12,80.62,0.81,109.64,0.81c29.02,0,56.31,11.3,76.83,31.83
						C207,53.16,218.3,80.45,218.3,109.47s-11.3,56.31-31.83,76.83C165.95,206.83,138.66,218.13,109.64,218.13z M109.64,10.93
						c-54.34,0-98.54,44.21-98.54,98.54c0,54.34,44.21,98.54,98.54,98.54s98.54-44.21,98.54-98.54
						C208.18,55.14,163.98,10.93,109.64,10.93z"/>
				</g>
			</g>
		</g>
	</g>
	<g id="Storage">
		<path class="st2" d="M67.49,157.37h-3.83c-1.06,0-1.92,0.86-1.92,1.92s0.86,1.92,1.92,1.92h3.83c1.06,0,1.92-0.86,1.92-1.92
			S68.55,157.37,67.49,157.37z"/>
		<path class="st2" d="M101.98,157.37h-3.83c-1.06,0-1.92,0.86-1.92,1.92s0.86,1.92,1.92,1.92h3.83c1.06,0,1.92-0.86,1.92-1.92
			S103.03,157.37,101.98,157.37z"/>
		<path class="st2" d="M136.46,157.37h-3.83c-1.06,0-1.92,0.86-1.92,1.92s0.86,1.92,1.92,1.92h3.83c1.06,0,1.92-0.86,1.92-1.92
			S137.52,157.37,136.46,157.37z"/>
		<path class="st3" d="M161.37,124.8h-15.33V88.4c0-1.06-0.86-1.92-1.92-1.92H128.8V53.92c0-1.06-0.86-1.92-1.92-1.92H92.4
			c-1.06,0-1.92,0.86-1.92,1.92v32.57H75.16c-1.06,0-1.92,0.86-1.92,1.92v36.4H57.91c-1.06,0-1.92,0.86-1.92,1.92v38.32
			c0,1.06,0.86,1.92,1.92,1.92h103.45c1.06,0,1.92-0.86,1.92-1.92v-38.32C163.28,125.66,162.42,124.8,161.37,124.8z M142.21,128.63
			h3.83v7.66h-3.83V128.63z M142.21,124.8h-30.65V90.32h9.58v9.58c0,1.06,0.86,1.92,1.92,1.92h7.66c1.06,0,1.92-0.86,1.92-1.92
			v-9.58h9.58V124.8z M107.72,128.63h3.83v7.66h-3.83V128.63z M128.8,90.32v7.66h-3.83v-7.66H128.8z M111.56,55.83v3.83h-3.83v-3.83
			H111.56z M94.31,55.83h9.58v5.75c0,1.06,0.86,1.92,1.92,1.92h7.66c1.06,0,1.92-0.86,1.92-1.92v-5.75h9.58v30.65H94.31V55.83z
			 M94.31,90.32v7.66h-3.83v-7.66H94.31z M77.07,90.32h9.58v9.58c0,1.06,0.86,1.92,1.92,1.92h7.66c1.06,0,1.92-0.86,1.92-1.92v-9.58
			h9.58v34.48H77.07V90.32z M77.07,128.63v7.66h-3.83v-7.66H77.07z M59.83,128.63h9.58v9.58c0,1.06,0.86,1.92,1.92,1.92h7.66
			c1.06,0,1.92-0.86,1.92-1.92v-9.58h9.58v34.48H59.83V128.63z M94.31,128.63h9.58v9.58c0,1.06,0.86,1.92,1.92,1.92h7.66
			c1.06,0,1.92-0.86,1.92-1.92v-9.58h9.58v34.48H94.31V128.63z M159.45,163.11H128.8v-34.48h9.58v9.58c0,1.06,0.86,1.92,1.92,1.92
			h7.66c1.06,0,1.92-0.86,1.92-1.92v-9.58h9.58V163.11z"/>
		<path class="st2" d="M80.9,122.88h3.83c1.06,0,1.92-0.86,1.92-1.92s-0.86-1.92-1.92-1.92H80.9c-1.06,0-1.92,0.86-1.92,1.92
			S79.84,122.88,80.9,122.88z"/>
		<path class="st2" d="M119.22,119.05h-3.83c-1.06,0-1.92,0.86-1.92,1.92s0.86,1.92,1.92,1.92h3.83c1.06,0,1.92-0.86,1.92-1.92
			S120.28,119.05,119.22,119.05z"/>
		<path class="st2" d="M98.14,84.57h3.83c1.06,0,1.92-0.86,1.92-1.92c0-1.06-0.86-1.92-1.92-1.92h-3.83c-1.06,0-1.92,0.86-1.92,1.92
			C96.23,83.71,97.09,84.57,98.14,84.57z"/>
	</g>
</g>
</svg>
