<?xml version="1.0" encoding="utf-8"?>
<!-- Generator: Adobe Illustrator 23.0.1, SVG Export Plug-In . SVG Version: 6.00 Build 0)  -->
<svg version="1.1" id="Layer_1" xmlns="http://www.w3.org/2000/svg" xmlns:xlink="http://www.w3.org/1999/xlink" x="0px" y="0px"
	 viewBox="0 0 54 54" style="enable-background:new 0 0 54 54;" xml:space="preserve">
<style type="text/css">
	.st0{fill:#00B2E3;}
	.st1{fill:#FFFFFF;}
</style>
<g>
	<circle class="st0" cx="27" cy="27" r="27"/>
	<g>
		<g>
			<path class="st1" d="M38.95,32.39c-1.72,0-3.13,1.4-3.13,3.13c0,1.72,1.4,3.13,3.13,3.13c1.72,0,3.13-1.4,3.13-3.13
				C42.07,33.79,40.67,32.39,38.95,32.39z M38.95,36.44c-0.51,0-0.92-0.41-0.92-0.92c0-0.51,0.41-0.92,0.92-0.92
				c0.51,0,0.92,0.41,0.92,0.92C39.87,36.02,39.46,36.44,38.95,36.44z"/>
			<path class="st1" d="M38.65,19.4h-5.4c-0.41,0-0.74,0.33-0.74,0.74v14.34c0,0.41,0.33,0.74,0.74,0.74h0.78
				c0.36,0,0.69-0.26,0.73-0.62c0.29-2.21,2.05-3.58,4.19-3.58c2.13,0,3.9,1.37,4.19,3.58c0.05,0.36,0.37,0.62,0.73,0.62h0.78
				c0.41,0,0.74-0.33,0.74-0.74v-7.17c0-0.17-0.06-0.34-0.17-0.47l-6-7.17C39.07,19.5,38.87,19.4,38.65,19.4z M33.99,25.28v-3.68
				c0-0.41,0.33-0.74,0.74-0.74h3.24c0.22,0,0.43,0.1,0.56,0.26l3.06,3.68c0.4,0.48,0.06,1.21-0.57,1.21h-6.3
				C34.31,26.02,33.99,25.69,33.99,25.28z"/>
			<path class="st1" d="M9.35,35.21h1.88c0.36,0,0.69-0.26,0.73-0.62c0.29-2.21,2.05-3.58,4.19-3.58c2.13,0,3.9,1.37,4.19,3.58
				c0.05,0.36,0.37,0.62,0.73,0.62h9.24c0.41,0,0.74-0.33,0.74-0.74V16.09c0-0.41-0.33-0.74-0.74-0.74H9.35
				c-0.41,0-0.74,0.33-0.74,0.74v18.38C8.62,34.88,8.95,35.21,9.35,35.21z"/>
			<path class="st1" d="M16.15,32.39c-1.72,0-3.13,1.4-3.13,3.13c0,1.72,1.4,3.13,3.13,3.13c1.72,0,3.13-1.4,3.13-3.13
				C19.28,33.79,17.88,32.39,16.15,32.39z M16.15,36.44c-0.51,0-0.92-0.41-0.92-0.92c0-0.51,0.41-0.92,0.92-0.92
				c0.51,0,0.92,0.41,0.92,0.92C17.07,36.02,16.66,36.44,16.15,36.44z"/>
		</g>
	</g>
</g>
</svg>
