<?xml version="1.0" encoding="utf-8"?>
<!-- Generator: Adobe Illustrator 23.0.1, SVG Export Plug-In . SVG Version: 6.00 Build 0)  -->
<svg version="1.1" id="Layer_1" xmlns="http://www.w3.org/2000/svg" xmlns:xlink="http://www.w3.org/1999/xlink" x="0px" y="0px"
	 viewBox="0 0 217.32 217.32" style="enable-background:new 0 0 217.32 217.32;" xml:space="preserve">
<style type="text/css">
	.st0{fill:#FFFFFF;}
	.st1{fill:#CCCCCC;}
	.st2{fill:#63E8A8;}
</style>
<g>
	<g>
		<g>
			<g>
				<circle class="st0" cx="109.88" cy="109.01" r="103.6"/>
				<path class="st1" d="M109.88,217.67c-29.02,0-56.31-11.3-76.83-31.83c-20.52-20.52-31.83-47.81-31.83-76.83
					s11.3-56.31,31.83-76.83C53.57,11.65,80.86,0.35,109.88,0.35c29.02,0,56.31,11.3,76.83,31.83
					c20.52,20.52,31.83,47.81,31.83,76.83s-11.3,56.31-31.83,76.83C166.19,206.37,138.9,217.67,109.88,217.67z M109.88,10.47
					c-54.34,0-98.54,44.21-98.54,98.54c0,54.34,44.21,98.54,98.54,98.54s98.54-44.21,98.54-98.54
					C208.42,54.67,164.22,10.47,109.88,10.47z"/>
			</g>
		</g>
	</g>
	<g id="Product_1_">
		<g>
			<path class="st2" d="M76.66,152.8h-2.52c1.64-2.51,2.52-5.45,2.52-8.45v-5.57c0-1.22-0.2-2.44-0.6-3.6l-6.85-19.92
				c-0.6-2.23-2.3-3.99-4.51-4.65l4.18-15.6c0.75-2.71-0.31-5.6-2.64-7.18c-0.6-0.43-1.28-0.75-1.99-0.95
				c-0.58-0.17-1.17-0.25-1.77-0.25c-2.98-0.03-5.6,1.95-6.39,4.82l-11.82,36.32c-0.59,1.85-0.7,3.82-0.3,5.72l3.42,13.27
				c0.32,1.26,0.49,2.55,0.49,3.85v2.19h-2.21c-1.22,0-2.21,0.99-2.21,2.21v13.29c0,1.22,0.99,2.21,2.21,2.21h31.01
				c1.22,0,2.21-0.99,2.21-2.21v-13.29C78.87,153.79,77.88,152.8,76.66,152.8z M51.66,145.65l-3.39-13.15
				c-0.22-1.12-0.16-2.28,0.2-3.36l11.86-36.44c0.31-1.17,1.52-1.86,2.68-1.54c0.01,0,0.01,0,0.02,0.01
				c0.24,0.06,0.47,0.17,0.68,0.32c0.78,0.52,1.14,1.49,0.89,2.39l-4.57,17.07c-2.37,1.07-3.89,3.43-3.88,6.02
				c-0.01,0.58,0.07,1.16,0.22,1.72l4.01,14.98c0.32,1.18,1.53,1.88,2.71,1.57c1.18-0.32,1.88-1.53,1.57-2.71l-4.02-15.03
				c-0.05-0.17-0.07-0.35-0.06-0.52c-0.01-0.93,0.58-1.76,1.47-2.06c0.05-0.02,0.26-0.09,0.29-0.1c1.21-0.24,2.38,0.54,2.63,1.75
				l6.89,20.06c0.24,0.69,0.36,1.42,0.36,2.16v5.57c0,2.19-0.65,4.33-1.86,6.14l-1.54,2.31H52.29v-2.19
				C52.29,148.94,52.08,147.27,51.66,145.65z M74.44,166.09H47.86v-8.86h26.58V166.09z"/>
			<path class="st2" d="M140.89,155.01v13.29c0,1.22,0.99,2.21,2.21,2.21h31.01c1.22,0,2.21-0.99,2.21-2.21v-13.29
				c0-1.22-0.99-2.21-2.21-2.21h-2.21v-2.19c0-1.3,0.16-2.6,0.49-3.86l3.42-13.27c0.4-1.9,0.29-3.87-0.3-5.72l-11.82-36.31
				c-0.8-2.86-3.41-4.83-6.38-4.81c-0.6,0-1.2,0.08-1.77,0.25c-0.72,0.19-1.39,0.52-1.99,0.95c-2.33,1.58-3.38,4.47-2.64,7.18
				l4.16,15.6c-2.21,0.67-3.91,2.42-4.51,4.65l-6.85,19.92c-0.4,1.16-0.6,2.37-0.6,3.59v5.57c0,3,0.88,5.94,2.52,8.45h-2.52
				C141.88,152.8,140.89,153.79,140.89,155.01z M167.47,150.61v2.19h-16.53l-1.54-2.31c-1.21-1.82-1.86-3.96-1.86-6.14v-5.57
				c0-0.73,0.12-1.46,0.36-2.16l6.89-20.06c0.25-1.2,1.42-1.98,2.63-1.75c0.03,0,0.24,0.08,0.29,0.1c0.88,0.3,1.48,1.13,1.47,2.06
				c0,0.18-0.02,0.35-0.06,0.52l-4.02,15.03c-0.32,1.18,0.38,2.4,1.57,2.71c1.18,0.32,2.4-0.38,2.71-1.57l4.01-14.98
				c0.16-0.56,0.23-1.14,0.22-1.72c0.01-2.59-1.5-4.95-3.87-6.02l-4.57-17.08c-0.25-0.9,0.11-1.87,0.89-2.39
				c0.2-0.15,0.43-0.26,0.68-0.32c1.16-0.33,2.37,0.35,2.7,1.52c0,0.01,0,0.01,0.01,0.02l11.86,36.44c0.35,1.08,0.42,2.24,0.2,3.36
				l-3.39,13.15C167.68,147.27,167.47,148.94,167.47,150.61z M145.32,157.23h26.58v8.86h-26.58V157.23z"/>
		</g>
	</g>
	<g>
		<g>
			<path class="st2" d="M109.88,137.24c-1.91,0-3.73-0.81-5.01-2.23c-3.19-3.55-31.17-35.39-31.17-58.59
				c0-19.95,16.23-36.18,36.18-36.18c19.95,0,36.18,16.23,36.18,36.18c0,9.99-5.14,22.75-15.28,37.93
				c-7.5,11.23-15.06,19.73-15.9,20.66C113.61,136.42,111.79,137.24,109.88,137.24z M109.88,47.87c-15.74,0-28.55,12.81-28.55,28.55
				c0,8.34,4.84,19.99,13.99,33.69c6.17,9.23,12.51,16.69,14.56,19.04c2.05-2.35,8.39-9.81,14.56-19.04
				c9.15-13.7,13.99-25.35,13.99-33.69C138.43,60.67,125.62,47.87,109.88,47.87z M109.88,96.52c-11.08,0-20.1-9.02-20.1-20.1
				c0-11.08,9.02-20.1,20.1-20.1c11.08,0,20.1,9.02,20.1,20.1C129.98,87.5,120.96,96.52,109.88,96.52z M109.88,63.95
				c-6.88,0-12.47,5.59-12.47,12.47c0,6.88,5.59,12.47,12.47,12.47c6.88,0,12.47-5.59,12.47-12.47
				C122.35,69.54,116.76,63.95,109.88,63.95z"/>
		</g>
	</g>
</g>
</svg>
