<?xml version="1.0" encoding="utf-8"?>
<!-- Generator: Adobe Illustrator 23.0.1, SVG Export Plug-In . SVG Version: 6.00 Build 0)  -->
<svg version="1.1" id="Layer_1" xmlns="http://www.w3.org/2000/svg" xmlns:xlink="http://www.w3.org/1999/xlink" x="0px" y="0px"
	 viewBox="0 0 217.32 217.32" style="enable-background:new 0 0 217.32 217.32;" xml:space="preserve">
<style type="text/css">
	.st0{fill:#FFFFFF;}
	.st1{fill:#CCCCCC;}
	.st2{fill:#63E8A8;stroke:#63E8A8;stroke-width:3;stroke-miterlimit:10;}
</style>
<g>
	<g>
		<g>
			<g>
				<circle class="st0" cx="109.98" cy="109.47" r="103.6"/>
				<path class="st1" d="M109.98,218.13c-29.02,0-56.31-11.3-76.83-31.83C12.62,165.78,1.32,138.5,1.32,109.47
					s11.3-56.31,31.83-76.83C53.67,12.12,80.96,0.81,109.98,0.81c29.02,0,56.31,11.3,76.83,31.83
					c20.52,20.52,31.83,47.81,31.83,76.83s-11.3,56.31-31.83,76.83C166.29,206.83,139.01,218.13,109.98,218.13z M109.98,10.93
					c-54.34,0-98.54,44.21-98.54,98.54c0,54.34,44.21,98.54,98.54,98.54s98.54-44.21,98.54-98.54
					C208.52,55.14,164.32,10.93,109.98,10.93z"/>
			</g>
		</g>
	</g>
	<g>
		<path class="st2" d="M146.53,96.37h-0.17c-2.38-0.01-4.68,0.86-6.45,2.45c-1.43-3.97-5.07-6.82-9.34-6.82
			c-2.61,0.02-5.11,1.09-6.92,2.98c-1.67-3.37-5.01-5.66-8.85-5.66h-0.19c-2.06-0.03-4.07,0.64-5.7,1.9V67.19
			c0-5.81-4.52-10.53-10.02-10.53c-5.49,0-9.99,4.72-10,10.53l-0.05,47.69l-2.7-3.28c-2.37-2.95-5.85-4.78-9.62-5.05
			c-3.69-0.25-7.32,1.03-10.03,3.55l-2.35,1.95c-0.76,0.63-0.97,1.7-0.52,2.57l22.83,43.88c4.17,8.02,12.12,13.02,20.73,13.02h25.73
			v-0.02c13.04,0,23.62-11.32,23.63-25.22c0.01-6.22-0.02-10.85-0.01-14.61c0.01-10.05,0-13.76-0.02-24.83
			C156.51,101.03,152.02,96.37,146.53,96.37z M152.34,131.65c0,3.76-0.01,8.41-0.02,14.63c-0.01,11.6-8.77,21.06-19.52,21.06h-25.6
			c-7.05,0-13.57-4.14-17.02-10.78l-22.05-42.38l1.09-0.91c0.03-0.02,0.05-0.05,0.08-0.07c1.87-1.76,4.39-2.67,6.96-2.5
			c2.62,0.2,5.04,1.48,6.68,3.54l6.39,7.77c0.56,0.68,1.49,0.94,2.32,0.64c0.83-0.3,1.38-1.08,1.38-1.96l0.04-53.51
			c0-3.5,2.65-6.35,5.85-6.35c3.2,0,5.85,2.85,5.85,6.36v32.26c0,0.11-0.01,0.23-0.01,0.34c0,0.05,0.01,0.1,0.01,0.15v13.79
			c0,1.15,0.93,2.09,2.09,2.09c1.15,0,2.09-0.93,2.09-2.09V99.52c0-3.38,2.58-6.02,5.7-6.02h0.19c3.2,0,5.86,2.79,5.86,6.29v12.62
			c0,1.15,0.93,2.09,2.09,2.09c1.15,0,2.09-0.93,2.09-2.09v-9.9c0-3.51,2.53-6.36,5.75-6.36c3.2,0,5.73,2.85,5.73,6.36v9.34
			c0,1.15,0.93,2.09,2.09,2.09c1.15,0,2.09-0.93,2.09-2.09v-5.06c0-3.51,2.67-6.25,5.87-6.25h0.17c3.19,0,5.79,2.79,5.8,6.29
			C152.36,117.9,152.35,121.6,152.34,131.65z"/>
		<path class="st2" d="M82.27,68.09c1.15,0,2.09-0.93,2.09-2.09c0.03-7.96,6.5-14.4,14.46-14.4c7.96,0,14.43,6.44,14.46,14.4
			c0,1.15,0.93,2.09,2.09,2.09c1.15,0,2.09-0.93,2.09-2.09c-0.04-10.27-8.37-18.57-18.64-18.57c-10.27,0-18.6,8.3-18.64,18.57
			C80.18,67.16,81.12,68.09,82.27,68.09z"/>
	</g>
</g>
</svg>
