<?xml version="1.0" encoding="utf-8"?>
<!-- Generator: Adobe Illustrator 23.0.1, SVG Export Plug-In . SVG Version: 6.00 Build 0)  -->
<svg version="1.1" id="Layer_1" xmlns="http://www.w3.org/2000/svg" xmlns:xlink="http://www.w3.org/1999/xlink" x="0px" y="0px"
	 viewBox="0 0 18.44 19.89" style="enable-background:new 0 0 18.44 19.89;" xml:space="preserve">
<style type="text/css">
	.st0{fill:#FFFFFF;}
</style>
<g>
	<g>
		<path class="st0" d="M8.88,18.75H3.69c-1.41,0-2.55-1.15-2.55-2.55V3.69c0-1.41,1.15-2.55,2.55-2.55h5.27
			c0.32,0,0.57-0.25,0.57-0.57C9.54,0.25,9.28,0,8.97,0H3.69C1.66,0,0,1.66,0,3.69V16.2c0,2.04,1.66,3.69,3.69,3.69h5.19
			c0.32,0,0.57-0.25,0.57-0.57C9.45,19.01,9.2,18.75,8.88,18.75z"/>
		<path class="st0" d="M18.27,9.55l-3.62-3.62c-0.22-0.22-0.58-0.22-0.81,0c-0.22,0.22-0.22,0.58,0,0.81l2.65,2.65H4.93
			c-0.32,0-0.57,0.25-0.57,0.57c0,0.32,0.25,0.57,0.57,0.57H16.5l-2.65,2.65c-0.22,0.22-0.22,0.58,0,0.81
			c0.11,0.11,0.26,0.17,0.4,0.17c0.14,0,0.29-0.06,0.4-0.17l3.62-3.62C18.5,10.13,18.5,9.77,18.27,9.55z"/>
	</g>
</g>
</svg>
