<?xml version="1.0" encoding="utf-8"?>
<!-- Generator: Adobe Illustrator 23.0.1, SVG Export Plug-In . SVG Version: 6.00 Build 0)  -->
<svg version="1.1" id="Layer_1" xmlns="http://www.w3.org/2000/svg" xmlns:xlink="http://www.w3.org/1999/xlink" x="0px" y="0px"
	 viewBox="0 0 217.32 217.32" style="enable-background:new 0 0 217.32 217.32;" xml:space="preserve">
<style type="text/css">
	.st0{fill:#FFFFFF;}
	.st1{fill:#CCCCCC;}
	.st2{fill:#63E8A8;}
</style>
<g>
	<g>
		<g>
			<g>
				<circle class="st0" cx="109.44" cy="109.47" r="103.6"/>
				<path class="st1" d="M109.44,218.13c-29.02,0-56.31-11.3-76.83-31.83C12.08,165.78,0.78,138.5,0.78,109.47
					s11.3-56.31,31.83-76.83C53.12,12.12,80.41,0.81,109.44,0.81c29.02,0,56.31,11.3,76.83,31.83
					c20.52,20.52,31.83,47.81,31.83,76.83s-11.3,56.31-31.83,76.83C165.75,206.83,138.46,218.13,109.44,218.13z M109.44,10.93
					c-54.34,0-98.54,44.21-98.54,98.54c0,54.34,44.21,98.54,98.54,98.54s98.54-44.21,98.54-98.54
					C207.98,55.14,163.77,10.93,109.44,10.93z"/>
			</g>
		</g>
	</g>
	<path class="st2" d="M156.03,132.6c-3.59,0-6.99,1.4-9.56,3.94c-2.57,2.57-4,5.92-4,9.5c0,3.59,1.4,6.93,4,9.5
		c2.6,2.54,5.98,3.94,9.56,3.94c7.35,0,13.33-6.04,13.33-13.45S163.39,132.6,156.03,132.6z M156.03,153.52
		c-4.12,0-7.59-3.41-7.59-7.47c0-4.06,3.47-7.47,7.59-7.47c4.06,0,7.35,3.35,7.35,7.47S160.1,153.52,156.03,153.52z M159.5,87.81
		c-0.54-0.51-1.26-0.78-2-0.78h-15.33c-1.64,0-2.99,1.34-2.99,2.99v24.5c0,1.64,1.34,2.99,2.99,2.99h24.32
		c1.64,0,2.99-1.34,2.99-2.99v-16.4c0-0.84-0.36-1.64-0.99-2.21L159.5,87.81z M163.51,111.53h-18.35V92.98h11.18l7.17,6.45V111.53z
		 M83.07,132.6c-3.59,0-6.99,1.4-9.56,3.94c-2.57,2.57-4,5.92-4,9.5c0,3.59,1.4,6.93,4,9.5c2.6,2.54,5.98,3.94,9.56,3.94
		c7.35,0,13.33-6.04,13.33-13.45S90.42,132.6,83.07,132.6z M83.07,153.52c-4.12,0-7.59-3.41-7.59-7.47c0-4.06,3.47-7.47,7.59-7.47
		c4.06,0,7.35,3.35,7.35,7.47S87.13,153.52,83.07,153.52z M63.14,136.28h-6.01v-7.95c0-1.64-1.34-2.99-2.99-2.99
		c-1.64,0-2.99,1.34-2.99,2.99v10.94c0,1.64,1.34,2.99,2.99,2.99h8.99c1.64,0,2.99-1.34,2.99-2.99
		C66.12,137.62,64.78,136.28,63.14,136.28z M78.28,119.99c0-1.64-1.34-2.99-2.99-2.99H39.05c-1.64,0-2.99,1.34-2.99,2.99
		s1.34,2.99,2.99,2.99H75.3C76.94,122.98,78.28,121.66,78.28,119.99z M45.12,109.2l36.25,0.21c1.64,0,2.99-1.31,3.02-2.96
		c0.03-1.67-1.31-3.02-2.96-3.02l-36.25-0.21c-0.03,0-0.03,0-0.03,0c-1.64,0-2.99,1.31-2.99,2.96
		C42.13,107.86,43.47,109.2,45.12,109.2z M51.21,95.64h36.25c1.64,0,2.99-1.34,2.99-2.99s-1.34-2.99-2.99-2.99H51.21
		c-1.64,0-2.99,1.34-2.99,2.99S49.57,95.64,51.21,95.64z M181.7,91.6L181.7,91.6l-21.39-17.72c-0.54-0.45-1.2-0.69-1.91-0.69h-25.16
		V62.44c0-1.64-1.34-2.99-2.99-2.99H54.14c-1.64,0-2.99,1.34-2.99,2.99v21.87c0,1.64,1.34,2.99,2.99,2.99
		c1.64,0,2.99-1.34,2.99-2.99V65.43h70.16v70.85h-24.5c-1.64,0-2.99,1.34-2.99,2.99c0,1.64,1.34,2.99,2.99,2.99h36.48
		c1.64,0,2.99-1.34,2.99-2.99c0-1.64-1.34-2.99-2.99-2.99h-6.01v-57.1h24.08l19.48,16.14l-0.21,40.91h-3.11
		c-1.64,0-2.99,1.34-2.99,2.99s1.34,2.99,2.99,2.99h6.07c1.64,0,2.99-1.31,2.99-2.96l0.24-45.3
		C182.78,93.04,182.39,92.17,181.7,91.6z"/>
</g>
</svg>
