<?xml version="1.0" encoding="utf-8"?>
<!-- Generator: Adobe Illustrator 23.0.1, SVG Export Plug-In . SVG Version: 6.00 Build 0)  -->
<svg version="1.1" id="Layer_1" xmlns="http://www.w3.org/2000/svg" xmlns:xlink="http://www.w3.org/1999/xlink" x="0px" y="0px"
	 viewBox="0 0 48 44.37" style="enable-background:new 0 0 48 44.37;" xml:space="preserve">
<style type="text/css">
	.st0{fill:#666666;}
</style>
<g>
	<g>
		<path class="st0" d="M39.04,11.59c-0.51-3.05-2.02-5.83-4.33-7.95C32.14,1.29,28.8,0,25.33,0c-2.68,0-5.3,0.77-7.54,2.22
			c-1.87,1.2-3.42,2.83-4.51,4.75c-0.47-0.09-0.97-0.14-1.46-0.14c-4.19,0-7.61,3.42-7.61,7.61c0,0.54,0.06,1.07,0.16,1.58
			C1.65,17.99,0,21.17,0,24.56c0,2.73,1.02,5.39,2.87,7.49c1.9,2.15,4.42,3.43,7.11,3.57c0.03,0,0.05,0,0.08,0h8.49
			c0.74,0,1.33-0.59,1.33-1.33s-0.59-1.33-1.33-1.33H10.1c-4.04-0.25-7.43-4.09-7.43-8.41c0-2.79,1.5-5.4,3.92-6.81
			c0.56-0.33,0.8-1.01,0.58-1.62c-0.2-0.53-0.3-1.1-0.3-1.7c0-2.72,2.22-4.95,4.95-4.95c0.58,0,1.15,0.1,1.69,0.3
			c0.65,0.24,1.37-0.06,1.67-0.68C17.02,5.17,21,2.65,25.34,2.65c5.82,0,10.63,4.36,11.18,10.15c0.06,0.6,0.51,1.09,1.11,1.18
			c4.39,0.75,7.71,4.81,7.71,9.44c0,4.91-3.86,9.17-8.62,9.53h-7.27c-0.74,0-1.33,0.59-1.33,1.33s0.59,1.33,1.33,1.33h7.32
			c0.03,0,0.06,0,0.1,0c3.01-0.22,5.82-1.6,7.92-3.91c2.08-2.29,3.22-5.23,3.22-8.29C47.99,17.88,44.21,12.95,39.04,11.59z"/>
		<path class="st0" d="M32,25.82c0.52-0.52,0.52-1.36,0-1.89l-7.06-7.06c-0.25-0.25-0.59-0.39-0.94-0.39
			c-0.35,0-0.69,0.14-0.94,0.39l-7.06,7.06c-0.52,0.52-0.52,1.36,0,1.89c0.26,0.26,0.6,0.39,0.94,0.39c0.34,0,0.68-0.13,0.94-0.39
			l4.79-4.79v22c0,0.74,0.59,1.33,1.33,1.33s1.33-0.59,1.33-1.33v-22l4.79,4.79C30.64,26.34,31.48,26.34,32,25.82z"/>
	</g>
</g>
</svg>
