<?xml version="1.0" encoding="utf-8"?>
<!-- Generator: Adobe Illustrator 23.0.1, SVG Export Plug-In . SVG Version: 6.00 Build 0)  -->
<svg version="1.1" id="Layer_1" xmlns="http://www.w3.org/2000/svg" xmlns:xlink="http://www.w3.org/1999/xlink" x="0px" y="0px"
	 viewBox="0 0 217.32 217.32" style="enable-background:new 0 0 217.32 217.32;" xml:space="preserve">
<style type="text/css">
	.st0{fill:#FFFFFF;}
	.st1{fill:#CCCCCC;}
	.st2{fill:#63E8A8;stroke:#63E8A8;stroke-miterlimit:10;}
</style>
<g>
	<g>
		<g>
			<g>
				<circle class="st0" cx="109.3" cy="108.47" r="103.6"/>
				<path class="st1" d="M109.3,217.13c-29.02,0-56.31-11.3-76.83-31.83C11.94,164.78,0.64,137.5,0.64,108.47
					s11.3-56.31,31.83-76.83C52.99,11.12,80.27-0.19,109.3-0.19c29.02,0,56.31,11.3,76.83,31.83
					c20.52,20.52,31.83,47.81,31.83,76.83s-11.3,56.31-31.83,76.83C165.61,205.83,138.32,217.13,109.3,217.13z M109.3,9.93
					c-54.34,0-98.54,44.21-98.54,98.54c0,54.34,44.21,98.54,98.54,98.54s98.54-44.21,98.54-98.54
					C207.84,54.14,163.64,9.93,109.3,9.93z"/>
			</g>
		</g>
	</g>
	<path class="st2" d="M158.97,96.45l-11.52-9.22V67.15c0-1.76-1.42-3.18-3.18-3.18h-12.71c-1.75,0-3.18,1.42-3.18,3.18l0,4.83
		l-17.09-13.67c-1.16-0.93-2.81-0.93-3.97,0L59.63,96.45c-1.05,0.84-1.46,2.26-1.01,3.54c0.45,1.27,1.65,2.13,3,2.13h9.54v54.04
		c0,1.76,1.42,3.18,3.18,3.18h69.94c1.76,0,3.18-1.42,3.18-3.18v-54.04h9.54c1.35,0,2.55-0.85,3-2.13
		C160.43,98.72,160.02,97.3,158.97,96.45L158.97,96.45z M134.73,76.69l0-6.36h6.35v11.82l-6.83-5.46
		C134.26,76.69,134.73,76.69,134.73,76.69z M102.94,152.98v-25.43h12.72v25.43H102.94z M144.27,95.76c-1.76,0-3.18,1.42-3.18,3.18
		v54.04h-19.07v-28.61c0-1.76-1.42-3.18-3.18-3.18H99.76c-1.76,0-3.18,1.42-3.18,3.18v28.61H77.51V98.94c0-1.76-1.42-3.18-3.18-3.18
		h-3.65l38.62-30.9l38.62,30.9C147.92,95.76,144.27,95.76,144.27,95.76z"/>
</g>
</svg>
