<?xml version="1.0" encoding="utf-8"?>
<!-- Generator: Adobe Illustrator 23.0.1, SVG Export Plug-In . SVG Version: 6.00 Build 0)  -->
<svg version="1.1" id="Layer_1" xmlns="http://www.w3.org/2000/svg" xmlns:xlink="http://www.w3.org/1999/xlink" x="0px" y="0px"
	 viewBox="0 0 53.67 53.67" style="enable-background:new 0 0 53.67 53.67;" xml:space="preserve">
<style type="text/css">
	.st0{fill:#CCCCCC;}
</style>
<g>
	<path class="st0" d="M48.96,0H4.72C2.12,0,0,2.12,0,4.72v44.24c0,2.6,2.12,4.72,4.72,4.72h44.24c2.6,0,4.72-2.12,4.72-4.72V4.72
		C53.67,2.12,51.56,0,48.96,0z M50.53,48.96c0,0.87-0.71,1.57-1.57,1.57H4.72c-0.87,0-1.57-0.71-1.57-1.57V4.72
		c0-0.87,0.71-1.57,1.57-1.57h44.24c0.87,0,1.57,0.71,1.57,1.57V48.96z"/>
	<path class="st0" d="M44.97,12.54C39.7,8.59,33.43,6.5,26.84,6.5S13.97,8.59,8.7,12.54c-0.33,0.25-0.55,0.62-0.61,1.04
		c-0.06,0.41,0.05,0.83,0.3,1.17l8.3,11.04c0.31,0.41,0.78,0.63,1.26,0.63c0.33,0,0.66-0.1,0.94-0.31c2.31-1.73,5.06-2.65,7.95-2.65
		c2.89,0,5.64,0.92,7.95,2.65c0.69,0.52,1.68,0.38,2.2-0.31l8.3-11.04c0.25-0.33,0.36-0.75,0.3-1.17
		C45.53,13.17,45.31,12.79,44.97,12.54z M35.37,22.7c-2.12-1.3-4.48-2.08-6.96-2.32v-4.79c0-0.87-0.7-1.57-1.57-1.57
		s-1.57,0.7-1.57,1.57v4.79c-2.48,0.23-4.84,1.02-6.96,2.32l-6.43-8.55c4.44-2.95,9.58-4.51,14.96-4.51s10.52,1.55,14.96,4.51
		L35.37,22.7z"/>
</g>
</svg>
