<?xml version="1.0" encoding="utf-8"?>
<!-- Generator: Adobe Illustrator 23.0.1, SVG Export Plug-In . SVG Version: 6.00 Build 0)  -->
<svg version="1.1" id="Layer_1" xmlns="http://www.w3.org/2000/svg" xmlns:xlink="http://www.w3.org/1999/xlink" x="0px" y="0px"
	 viewBox="0 0 81.08 81.07" style="enable-background:new 0 0 81.08 81.07;" xml:space="preserve">
<style type="text/css">
	.st0{fill:#4D4D4D;}
</style>
<g>
	<path class="st0" d="M32.9,0.39c-0.36-0.36-0.9-0.49-1.38-0.32L8.99,7.57l-6.7-6.7C1.76,0.36,0.92,0.37,0.4,0.89
		s-0.53,1.36-0.02,1.89l6.95,6.95L0.08,31.5c-0.16,0.49-0.03,1.02,0.33,1.38l47.78,47.79c0.53,0.53,1.38,0.53,1.91,0l30.58-30.58
		c0.53-0.53,0.53-1.38,0-1.91L32.9,0.39z M49.14,77.8L2.91,31.56l6.56-19.69l5.15,5.15c-1.91,2.89-1.32,6.77,1.36,8.96
		s6.6,2,9.05-0.46s2.65-6.37,0.46-9.05s-6.07-3.28-8.96-1.36L11.12,9.7l20.45-6.81l46.24,46.24L49.14,77.8z M19.3,21.71
		c0.53,0.51,1.37,0.5,1.89-0.02c0.52-0.52,0.53-1.36,0.02-1.89l-2.69-2.69c1.78-0.85,3.91-0.3,5.05,1.31
		c1.14,1.61,0.95,3.81-0.45,5.2c-1.6,1.53-4.13,1.53-5.73,0c-1.22-1.21-1.54-3.06-0.78-4.61L19.3,21.71z"/>
	<path class="st0" d="M28.12,51.04l3.82-3.82l21.03,21.02l-3.82,3.82L28.12,51.04z"/>
	<path class="st0" d="M37.68,41.49l3.82-3.82l21.02,21.03l-3.82,3.82L37.68,41.49z"/>
	<path class="st0" d="M43.41,35.75l3.82-3.82l21.03,21.02l-3.82,3.82L43.41,35.75z"/>
	<path class="st0" d="M49.14,30.02l1.91-1.91l21.02,21.03l-1.91,1.91L49.14,30.02z"/>
	<path class="st0" d="M33.85,45.31l1.91-1.91l21.03,21.02l-1.91,1.91L33.85,45.31z"/>
</g>
</svg>
