<?xml version="1.0" encoding="utf-8"?>
<!-- Generator: Adobe Illustrator 23.0.1, SVG Export Plug-In . SVG Version: 6.00 Build 0)  -->
<svg version="1.1" id="Layer_1" xmlns="http://www.w3.org/2000/svg" xmlns:xlink="http://www.w3.org/1999/xlink" x="0px" y="0px"
	 viewBox="0 0 217.32 217.32" style="enable-background:new 0 0 217.32 217.32;" xml:space="preserve">
<style type="text/css">
	.st0{fill:#FFFFFF;}
	.st1{fill:#CCCCCC;}
	.st2{fill:#63E8A8;}
</style>
<g>
	<g>
		<g>
			<g>
				<g>
					<circle class="st0" cx="109.45" cy="109.47" r="103.6"/>
					<path class="st1" d="M109.45,218.13c-29.02,0-56.31-11.3-76.83-31.83C12.09,165.78,0.79,138.5,0.79,109.47
						s11.3-56.31,31.83-76.83C53.14,12.12,80.42,0.81,109.45,0.81c29.02,0,56.31,11.3,76.83,31.83
						c20.52,20.52,31.83,47.81,31.83,76.83s-11.3,56.31-31.83,76.83C165.76,206.83,138.47,218.13,109.45,218.13z M109.45,10.93
						c-54.34,0-98.54,44.21-98.54,98.54c0,54.34,44.21,98.54,98.54,98.54s98.54-44.21,98.54-98.54
						C207.99,55.14,163.78,10.93,109.45,10.93z"/>
				</g>
			</g>
		</g>
	</g>
	<g id="Product_1_">
		<g>
			<path class="st2" d="M75.27,153.77h-2.59c1.69-2.59,2.59-5.61,2.59-8.7v-5.73c0-1.26-0.21-2.51-0.62-3.7l-7.05-20.49
				c-0.61-2.29-2.37-4.1-4.64-4.78l4.29-16.05c0.77-2.79-0.32-5.76-2.71-7.39c-0.62-0.44-1.31-0.78-2.05-0.98
				c-0.59-0.17-1.21-0.26-1.82-0.25c-3.06-0.03-5.76,2-6.57,4.95l-12.16,37.36c-0.61,1.9-0.72,3.93-0.31,5.88l3.51,13.65
				c0.33,1.3,0.5,2.63,0.5,3.96v2.25h-2.28c-1.26,0-2.28,1.02-2.28,2.28v13.67c0,1.26,1.02,2.28,2.28,2.28h31.9
				c1.26,0,2.28-1.02,2.28-2.28v-13.67C77.55,154.79,76.53,153.77,75.27,153.77z M49.57,146.41l-3.49-13.53
				c-0.23-1.15-0.16-2.34,0.2-3.46l12.2-37.49c0.32-1.2,1.56-1.91,2.76-1.59c0.01,0,0.02,0,0.02,0.01c0.25,0.06,0.49,0.18,0.7,0.33
				c0.8,0.54,1.17,1.53,0.91,2.46l-4.7,17.56c-2.43,1.1-4,3.53-3.99,6.2c-0.01,0.6,0.07,1.19,0.23,1.77l4.12,15.41
				c0.33,1.22,1.58,1.94,2.79,1.61c1.22-0.33,1.94-1.58,1.61-2.79l-4.13-15.46c-0.05-0.18-0.07-0.36-0.07-0.54
				c-0.01-0.96,0.6-1.81,1.51-2.12c0.05-0.02,0.27-0.09,0.3-0.1c1.24-0.25,2.45,0.56,2.71,1.8l7.09,20.64
				c0.25,0.71,0.37,1.46,0.37,2.22v5.73c0,2.25-0.66,4.45-1.91,6.32l-1.58,2.38H50.21v-2.25C50.21,149.8,50,148.08,49.57,146.41z
				 M73,167.44H45.66v-9.11H73V167.44z"/>
			<path class="st2" d="M141.34,156.05v13.67c0,1.26,1.02,2.28,2.28,2.28h31.9c1.26,0,2.28-1.02,2.28-2.28v-13.67
				c0-1.26-1.02-2.28-2.28-2.28h-2.28v-2.25c0-1.34,0.17-2.68,0.5-3.98l3.51-13.65c0.41-1.95,0.3-3.98-0.31-5.88l-12.16-37.35
				c-0.82-2.94-3.51-4.97-6.56-4.94c-0.62,0-1.23,0.08-1.82,0.25c-0.74,0.2-1.43,0.53-2.05,0.98c-2.39,1.63-3.48,4.6-2.71,7.39
				l4.28,16.05c-2.27,0.68-4.02,2.49-4.64,4.78l-7.05,20.49c-0.41,1.19-0.62,2.44-0.62,3.69v5.73c0,3.09,0.9,6.11,2.59,8.7h-2.59
				C142.36,153.77,141.34,154.79,141.34,156.05z M168.68,151.52v2.25h-17.01l-1.58-2.38c-1.25-1.87-1.92-4.07-1.91-6.32v-5.73
				c0-0.76,0.13-1.51,0.37-2.22l7.09-20.64c0.26-1.24,1.46-2.04,2.71-1.8c0.03,0,0.25,0.08,0.3,0.1c0.91,0.3,1.52,1.16,1.51,2.12
				c0,0.18-0.02,0.36-0.07,0.54l-4.14,15.46c-0.33,1.22,0.4,2.46,1.61,2.79c1.22,0.33,2.46-0.4,2.79-1.61l4.12-15.41
				c0.16-0.58,0.24-1.17,0.23-1.77c0.01-2.67-1.55-5.1-3.98-6.2l-4.7-17.57c-0.26-0.93,0.11-1.92,0.91-2.46
				c0.21-0.15,0.45-0.27,0.7-0.33c1.2-0.34,2.44,0.36,2.78,1.56c0,0.01,0,0.01,0.01,0.02l12.2,37.49c0.36,1.12,0.43,2.31,0.2,3.46
				l-3.49,13.53C168.9,148.08,168.68,149.8,168.68,151.52z M145.9,158.33h27.34v9.11H145.9V158.33z"/>
			<path class="st2" d="M146.81,51.44l-36.45-15.95c-0.58-0.25-1.24-0.25-1.82,0L72.08,51.44c-0.83,0.36-1.37,1.18-1.37,2.09v45.56
				c0,0.86,0.48,1.64,1.24,2.03l36.45,18.54c0.32,0.16,0.67,0.25,1.03,0.25c0.36,0,0.71-0.08,1.02-0.24l36.45-18.32
				c0.77-0.39,1.26-1.18,1.26-2.04V53.53C148.18,52.62,147.64,51.8,146.81,51.44z M109.45,40.06l30.77,13.46l-30.77,13.46l-8-3.5
				l12.17-5.32c1.15-0.5,1.68-1.85,1.17-3c-0.23-0.52-0.65-0.94-1.17-1.17l-9.78-4.26c-0.58-0.25-1.24-0.25-1.82,0l-16.02,7
				l-7.31-3.2L109.45,40.06z M88.94,62.99l4.56,1.99v9.92l-4.56-2.28V62.99z M91.68,59.22l11.25-4.91l4.08,1.78L95.78,61
				L91.68,59.22z M75.27,57.01L84.39,61v13.03c0,0.86,0.49,1.65,1.26,2.04l9.11,4.56c1.13,0.56,2.49,0.11,3.06-1.02
				c0.16-0.32,0.24-0.67,0.24-1.02V66.97l9.11,3.99v42.97l-31.9-16.23V57.01z M111.73,113.94V70.96l31.9-13.95v40.9L111.73,113.94z"
				/>
			<path class="st2" d="M124.39,97.34l-9.13,4.59c-1.12,0.57-1.58,1.94-1.01,3.06c0.57,1.12,1.94,1.58,3.06,1.01l9.13-4.59
				c1.12-0.57,1.58-1.94,1.01-3.06C126.88,97.23,125.51,96.78,124.39,97.34L124.39,97.34z"/>
			<path class="st2" d="M116.28,97.13c0.35,0,0.7-0.08,1.02-0.24l9-4.52c1.12-0.57,1.58-1.94,1.01-3.06
				c-0.57-1.12-1.94-1.58-3.06-1.01l0,0l-9,4.52c-1.12,0.57-1.58,1.94-1.01,3.06C114.63,96.65,115.42,97.13,116.28,97.13z"/>
		</g>
	</g>
</g>
</svg>
