<?xml version="1.0" encoding="utf-8"?>
<!-- Generator: Adobe Illustrator 23.0.1, SVG Export Plug-In . SVG Version: 6.00 Build 0)  -->
<svg version="1.1" id="Layer_1" xmlns="http://www.w3.org/2000/svg" xmlns:xlink="http://www.w3.org/1999/xlink" x="0px" y="0px"
	 viewBox="0 0 16.61 16.61" style="enable-background:new 0 0 16.61 16.61;" xml:space="preserve">
<style type="text/css">
	.st0{fill:#FFFFFF;}
</style>
<g>
	<g>
		<path class="st0" d="M14.18,10.74c-0.91-0.9-1.98-1.57-3.16-1.98c1.26-0.87,2.08-2.32,2.08-3.96c0-2.65-2.15-4.8-4.8-4.8
			C5.66,0,3.5,2.15,3.5,4.8c0,1.64,0.83,3.09,2.09,3.96c-1.17,0.41-2.25,1.08-3.16,1.98C0.86,12.31,0,14.39,0,16.61h1.3
			c0-3.87,3.14-7.01,7.01-7.01c3.86,0,7.01,3.14,7.01,7.01h1.3C16.61,14.39,15.75,12.31,14.18,10.74z M8.31,8.31
			c-1.93,0-3.5-1.57-3.5-3.5c0-1.93,1.57-3.5,3.5-3.5c1.93,0,3.5,1.57,3.5,3.5C11.81,6.73,10.24,8.31,8.31,8.31z"/>
	</g>
</g>
</svg>
