<?xml version="1.0" encoding="utf-8"?>
<!-- Generator: Adobe Illustrator 23.0.1, SVG Export Plug-In . SVG Version: 6.00 Build 0)  -->
<svg version="1.1" id="Layer_1" xmlns="http://www.w3.org/2000/svg" xmlns:xlink="http://www.w3.org/1999/xlink" x="0px" y="0px"
	 viewBox="0 0 217.32 217.32" style="enable-background:new 0 0 217.32 217.32;" xml:space="preserve">
<style type="text/css">
	.st0{fill:#FFFFFF;}
	.st1{fill:#CCCCCC;}
	.st2{fill:#63E8A8;}
</style>
<g>
	<g>
		<g>
			<g>
				<circle class="st0" cx="108.66" cy="108.66" r="103.6"/>
				<path class="st1" d="M108.66,217.32c-29.02,0-56.31-11.3-76.83-31.83C11.3,164.97,0,137.68,0,108.66s11.3-56.31,31.83-76.83
					C52.35,11.3,79.64,0,108.66,0c29.02,0,56.31,11.3,76.83,31.83c20.52,20.52,31.83,47.81,31.83,76.83s-11.3,56.31-31.83,76.83
					C164.97,206.02,137.69,217.32,108.66,217.32z M108.66,10.12c-54.34,0-98.54,44.21-98.54,98.54c0,54.34,44.21,98.54,98.54,98.54
					S207.2,163,207.2,108.66C207.2,54.32,163,10.12,108.66,10.12z"/>
			</g>
		</g>
	</g>
	<g>
		<g>
			<path class="st2" d="M108.66,173.42c-2.55,0-4.98-1.09-6.69-2.98c-4.26-4.74-41.63-47.25-41.63-78.23
				c0-26.64,21.67-48.31,48.31-48.31c26.64,0,48.31,21.67,48.31,48.31c0,13.34-6.86,30.38-20.4,50.65
				c-10.02,14.99-20.11,26.34-21.23,27.58C113.64,172.34,111.21,173.42,108.66,173.42z M108.66,54.08
				c-21.02,0-38.13,17.1-38.13,38.13c0,11.13,6.46,26.69,18.69,44.99c8.24,12.33,16.71,22.29,19.44,25.42
				c2.73-3.13,11.21-13.1,19.44-25.42c12.22-18.3,18.69-33.85,18.69-44.99C146.79,71.19,129.68,54.08,108.66,54.08z M108.66,119.05
				c-14.8,0-26.84-12.04-26.84-26.84c0-14.8,12.04-26.84,26.84-26.84c14.8,0,26.84,12.04,26.84,26.84
				C135.5,107.01,123.46,119.05,108.66,119.05z M108.66,75.56c-9.18,0-16.65,7.47-16.65,16.65s7.47,16.65,16.65,16.65
				c9.18,0,16.65-7.47,16.65-16.65S117.84,75.56,108.66,75.56z"/>
		</g>
	</g>
</g>
</svg>
