<?xml version="1.0" encoding="utf-8"?>
<!-- Generator: Adobe Illustrator 23.0.1, SVG Export Plug-In . SVG Version: 6.00 Build 0)  -->
<svg version="1.1" id="Layer_1" xmlns="http://www.w3.org/2000/svg" xmlns:xlink="http://www.w3.org/1999/xlink" x="0px" y="0px"
	 viewBox="0 0 28.33 28.33" style="enable-background:new 0 0 28.33 28.33;" xml:space="preserve">
<style type="text/css">
	.st0{fill:#4D4D4D;}
</style>
<path class="st0" d="M20.25,17.82h-1.28l-0.45-0.44c1.59-1.85,2.54-4.24,2.54-6.85C21.06,4.71,16.34,0,10.53,0S0,4.71,0,10.53
	s4.71,10.53,10.53,10.53c2.61,0,5.01-0.96,6.85-2.54l0.44,0.45v1.28l8.1,8.08l2.41-2.41L20.25,17.82z M10.53,17.82
	c-4.03,0-7.29-3.26-7.29-7.29s3.26-7.29,7.29-7.29c4.03,0,7.29,3.26,7.29,7.29S14.56,17.82,10.53,17.82z"/>
</svg>
