<?xml version="1.0" encoding="utf-8"?>
<!-- Generator: Adobe Illustrator 23.0.1, SVG Export Plug-In . SVG Version: 6.00 Build 0)  -->
<svg version="1.1" id="Layer_1" xmlns="http://www.w3.org/2000/svg" xmlns:xlink="http://www.w3.org/1999/xlink" x="0px" y="0px"
	 viewBox="0 0 56.49 81.6" style="enable-background:new 0 0 56.49 81.6;" xml:space="preserve">
<style type="text/css">
	.st0{fill:#4D4D4D;}
</style>
<g>
	<path class="st0" d="M50.41,32.18h-0.11c-1.44-0.01-2.84,0.57-3.91,1.61c-0.87-2.61-3.08-4.48-5.66-4.48
		c-1.59,0.01-3.1,0.72-4.2,1.96c-1.01-2.22-3.04-3.72-5.36-3.72h-0.11c-1.25-0.02-2.47,0.42-3.45,1.25V12.99
		c0-3.82-2.74-6.93-6.08-6.93c-3.33,0-6.06,3.11-6.06,6.92l-0.03,31.36l-1.64-2.16c-1.44-1.94-3.55-3.14-5.83-3.32
		c-2.24-0.17-4.44,0.68-6.08,2.34l-1.42,1.28C0,42.9-0.13,43.6,0.14,44.17l13.84,28.86c2.53,5.27,7.35,8.56,12.57,8.56h15.6v-0.01
		c7.91,0,14.32-7.44,14.33-16.58c0-4.09-0.01-7.14-0.01-9.61c0.01-6.61,0-9.05-0.01-16.33C56.46,35.25,53.74,32.18,50.41,32.18z
		 M53.93,55.38c0,2.47-0.01,5.53-0.01,9.62c-0.01,7.63-5.32,13.85-11.84,13.85H26.56c-4.27,0-8.23-2.72-10.32-7.09L2.86,43.9
		l0.66-0.6c0.02-0.01,0.03-0.03,0.05-0.05c1.14-1.16,2.66-1.75,4.22-1.64c1.59,0.13,3.06,0.98,4.05,2.33l3.87,5.11
		c0.34,0.45,0.9,0.62,1.4,0.42c0.5-0.2,0.84-0.71,0.84-1.29l0.02-35.19c0-2.3,1.61-4.18,3.55-4.18s3.54,1.88,3.54,4.18v21.22
		c0,0.07,0,0.15,0,0.22c0,0.03,0,0.07,0,0.1v9.07c0,0.76,0.57,1.37,1.27,1.37s1.27-0.61,1.27-1.37v-9.35c0-2.22,1.57-3.96,3.45-3.96
		h0.11c1.94,0,3.55,1.83,3.55,4.14v8.3c0,0.76,0.57,1.37,1.27,1.37s1.27-0.61,1.27-1.37v-6.51c0-2.31,1.54-4.18,3.49-4.18
		c1.94,0,3.48,1.88,3.48,4.18v6.14c0,0.76,0.57,1.37,1.27,1.37c0.7,0,1.27-0.61,1.27-1.37v-3.33c0-2.31,1.62-4.11,3.56-4.11h0.11
		c1.93,0,3.51,1.84,3.52,4.13C53.94,46.34,53.94,48.78,53.93,55.38z"/>
	<path class="st0" d="M11.44,13.58c0.7,0,1.27-0.61,1.27-1.37c0.02-5.24,3.94-9.47,8.77-9.47c4.83,0,8.75,4.23,8.77,9.47
		c0,0.76,0.57,1.37,1.27,1.37c0.7,0,1.27-0.61,1.27-1.37C32.76,5.46,27.7,0,21.48,0c-6.23,0-11.28,5.46-11.3,12.21
		C10.18,12.97,10.74,13.58,11.44,13.58z"/>
</g>
</svg>
