<?xml version="1.0" encoding="utf-8"?>
<!-- Generator: Adobe Illustrator 23.0.1, SVG Export Plug-In . SVG Version: 6.00 Build 0)  -->
<svg version="1.1" id="Layer_1" xmlns="http://www.w3.org/2000/svg" xmlns:xlink="http://www.w3.org/1999/xlink" x="0px" y="0px"
	 viewBox="0 0 53.93 40.11" style="enable-background:new 0 0 53.93 40.11;" xml:space="preserve">
<style type="text/css">
	.st0{fill:#FFFFFF;}
</style>
<path class="st0" d="M50.86,4.61c-0.94-0.75-3.01-0.83-3.01-0.83s-0.78-2.52-3.39-3.35c-1.02-0.32-1.84-0.49-2.54-0.43
	c-0.51,0.04-0.54,0.43-0.49,0.77c0.05,0.42,0.19,0.83,0.41,1.19c0.21,0.33,0.47,0.62,0.77,0.87c1.17,1.02,1.87,0.69,2.83,0.95
	c0.91,0.24,1.13,0.85,1.13,0.85c-0.25-0.28-0.58-0.47-0.94-0.55c-0.26-0.06-0.53-0.1-0.8-0.13c-0.76-0.06-1.6,0.09-2.56-0.74
	c-0.3-0.24-0.56-0.53-0.77-0.85c-0.05-0.09-0.16-0.13-0.25-0.11l-0.07,0.02c-0.34,0.08-0.54,0.22-0.36,0.65
	c0.22,0.52,0.87,1.06,1.65,1.4c0.83,0.37,1.82,0.34,2.54,0.52c0.41,0.09,0.78,0.3,1.07,0.61c-0.19,0.26-0.34,0.55-0.45,0.85
	c-0.14,0.4-0.21,0.82-0.19,1.25c0,0-6.98-2.22-12.25-3.85C24.46,1,18.14,7.42,14.21,12.18C7.33,20.49,2.24,18.63,0.64,18.1
	c-0.25-0.09-0.53,0.05-0.62,0.31c0,0.01-0.01,0.03-0.01,0.04c-0.04,0.2,0.04,0.4,0.21,0.52c5,3.22,9.88,1.72,17.15-3.73
	c4.45-3.34,6.89-3.24,6.89-3.24c-0.01,5.39,2.89,4.44,3.44,9.71c0.3,2.87-0.89,5.1-1.87,6.85c-0.33,0.6-0.12,1.36,0.36,1.83
	c1.78,1.77,6.04,5.79,5.76,8.75c0,0.23,0.15,0.44,0.36,0.52l1.04,0.4c0.51,0.2,0.98-0.23,0.96-0.78c-0.05-1.3-0.77-3.76-2.68-6.3
	c-2.69-3.56-2.54-5.15-0.28-7.72c1.92-2.17,3.9-3.8,4.65-7.44c0.7-3.43-0.94-5.67-1.85-6.61c-0.03-0.02-0.03-0.07-0.01-0.1
	c0.02-0.03,0.07-0.03,0.1-0.01l0,0c1.86,1.26,2.91,3.4,2.77,5.64c1.48-0.13,2.93-0.42,4.34-0.87c0.3-0.1,0.63,0.06,0.73,0.36
	c0.04,0.12,0.04,0.25,0,0.37c-0.41,1.11-1.15,2.07-2.13,2.75c-0.27,0.17-0.45,0.44-0.5,0.75l-0.19,0.95
	c-0.06,0.29,0.13,0.58,0.42,0.64c0.12,0.03,0.25,0.01,0.36-0.05c1.29-0.63,2.38-1.59,3.16-2.79c0.72-1.11,1.23-2.34,1.48-3.64
	c0.13-0.66,0.44-1.27,0.91-1.76c0.6-0.65,1.56-1.63,2.88-2.86c0.7-0.64,3.86,0.27,4.53-0.31c0.48-0.42,0.93-1.63,0.93-1.63
	C53.84,8.23,52.21,5.68,50.86,4.61z"/>
</svg>
