<?xml version="1.0" encoding="utf-8"?>
<!-- Generator: Adobe Illustrator 23.0.1, SVG Export Plug-In . SVG Version: 6.00 Build 0)  -->
<svg version="1.1" id="Layer_1" xmlns="http://www.w3.org/2000/svg" xmlns:xlink="http://www.w3.org/1999/xlink" x="0px" y="0px"
	 viewBox="0 0 26 19.8" style="enable-background:new 0 0 26 19.8;" xml:space="preserve">
<style type="text/css">
	.st0{fill:#4D4D4D;}
</style>
<g>
	<g>
		<g>
			<path class="st0" d="M22.8,0H3.2C1.4,0,0,1.4,0,3.2v13.4c0,1.8,1.4,3.2,3.2,3.2h19.6c1.8,0,3.2-1.4,3.2-3.2V3.2
				C26,1.4,24.6,0,22.8,0z M24.6,16.6c0,1-0.8,1.7-1.7,1.7H3.2c-1,0-1.7-0.8-1.7-1.7V3.2c0-1,0.8-1.7,1.7-1.7h19.6
				c1,0,1.7,0.8,1.7,1.7L24.6,16.6L24.6,16.6z"/>
			<path class="st0" d="M16.4,9.7L22.8,4c0.3-0.3,0.3-0.7,0.1-1c-0.3-0.3-0.7-0.3-1-0.1L13,10.8l-1.7-1.5c0,0,0,0,0,0
				c0,0-0.1-0.1-0.1-0.1l-7-6.2C3.9,2.7,3.5,2.7,3.2,3S2.9,3.8,3.2,4l6.4,5.8l-6.4,6c-0.3,0.3-0.3,0.7,0,1C3.4,17,3.6,17,3.8,17
				c0.2,0,0.4-0.1,0.5-0.2l6.5-6.1l1.8,1.6c0.1,0.1,0.3,0.2,0.5,0.2s0.3-0.1,0.5-0.2l1.8-1.6l6.5,6.1c0.1,0.1,0.3,0.2,0.5,0.2
				c0.2,0,0.4-0.1,0.5-0.2c0.3-0.3,0.3-0.8,0-1L16.4,9.7z"/>
		</g>
	</g>
</g>
</svg>
