<?xml version="1.0" encoding="utf-8"?>
<!-- Generator: Adobe Illustrator 23.0.1, SVG Export Plug-In . SVG Version: 6.00 Build 0)  -->
<svg version="1.1" id="Layer_1" xmlns="http://www.w3.org/2000/svg" xmlns:xlink="http://www.w3.org/1999/xlink" x="0px" y="0px"
	 viewBox="0 0 28 26.29" style="enable-background:new 0 0 28 26.29;" xml:space="preserve">
<style type="text/css">
	.st0{fill:#101820;}
</style>
<path id="XMLID_3_" class="st0" d="M27.14,19.43h-0.86v-8.86c0-0.47-0.38-0.86-0.86-0.86h-4.86V0.86c0-0.47-0.38-0.86-0.86-0.86
	H8.29C7.81,0,7.43,0.38,7.43,0.86v8.86H2.57c-0.47,0-0.86,0.38-0.86,0.86v8.86H0.86C0.38,19.43,0,19.81,0,20.29v5.14
	c0,0.47,0.38,0.86,0.86,0.86h3.43c0.47,0,0.86-0.38,0.86-0.86v-0.86h6.29v0.86c0,0.47,0.38,0.86,0.86,0.86h3.43
	c0.47,0,0.86-0.38,0.86-0.86v-0.86h6.29v0.86c0,0.47,0.38,0.86,0.86,0.86h3.43c0.47,0,0.86-0.38,0.86-0.86v-5.14
	C28,19.81,27.62,19.43,27.14,19.43z M24.57,11.43v8h-9.71v-8H24.57z M9.14,1.71h9.71v8H9.14V1.71z M3.43,11.43h9.71v8H3.43V11.43z
	 M26.29,24.57h-1.71v-0.86c0-0.47-0.38-0.86-0.86-0.86h-8c-0.47,0-0.86,0.38-0.86,0.86v0.86h-1.71v-0.86c0-0.47-0.38-0.86-0.86-0.86
	h-8c-0.47,0-0.86,0.38-0.86,0.86v0.86H1.71v-3.43h24.57V24.57z"/>
</svg>
