<?xml version="1.0" encoding="utf-8"?>
<!-- Generator: Adobe Illustrator 23.0.1, SVG Export Plug-In . SVG Version: 6.00 Build 0)  -->
<svg version="1.1" id="Layer_1" xmlns="http://www.w3.org/2000/svg" xmlns:xlink="http://www.w3.org/1999/xlink" x="0px" y="0px"
	 viewBox="0 0 21.41 23.26" style="enable-background:new 0 0 21.41 23.26;" xml:space="preserve">
<style type="text/css">
	.st0{fill:#101820;}
</style>
<g>
	<g>
		<path class="st0" d="M21.4,5.48c0-0.09-0.02-0.18-0.06-0.26c-0.08-0.17-0.23-0.28-0.4-0.31l-10-4.85c-0.16-0.08-0.35-0.08-0.52,0
			L0.33,4.95C0.14,5.05,0.01,5.24,0,5.46v0c0,0,0,0.01,0,0.02v12.28C0,18,0.13,18.2,0.33,18.3l10.1,4.89c0,0,0,0,0.01,0
			c0.01,0.01,0.03,0.01,0.05,0.02c0,0,0.01,0.01,0.02,0.01c0.01,0,0.03,0.01,0.04,0.01c0,0,0.01,0.01,0.02,0.01
			c0.01,0,0.03,0,0.05,0.01c0,0,0.01,0,0.01,0c0.02,0,0.04,0,0.06,0c0.02,0,0.04,0,0.06,0c0,0,0.01,0,0.01,0
			c0.01,0,0.03,0,0.05-0.01c0,0,0.01-0.01,0.01-0.01c0.01,0,0.03-0.01,0.04-0.01c0.01,0,0.01-0.01,0.02-0.01
			c0.01,0,0.03-0.01,0.04-0.02c0,0,0,0,0.01,0l10.13-4.91c0.2-0.1,0.33-0.3,0.33-0.53V5.5C21.4,5.49,21.4,5.49,21.4,5.48z
			 M10.69,1.24l8.76,4.25l-3.22,1.57L7.46,2.81L10.69,1.24z M10.69,9.73L1.93,5.49l4.18-2.03l8.76,4.25L10.69,9.73z M1.18,6.44
			l8.92,4.33v10.96L1.18,17.4V6.44z M11.28,21.72V10.76l4.19-2.03v2.87c0,0.32,0.27,0.59,0.59,0.59c0.32,0,0.59-0.27,0.59-0.59V8.15
			l3.58-1.74v10.96L11.28,21.72z"/>
	</g>
</g>
</svg>
