<?xml version="1.0" encoding="utf-8"?>
<!-- Generator: Adobe Illustrator 23.0.1, SVG Export Plug-In . SVG Version: 6.00 Build 0)  -->
<svg version="1.1" id="Layer_1" xmlns="http://www.w3.org/2000/svg" xmlns:xlink="http://www.w3.org/1999/xlink" x="0px" y="0px"
	 viewBox="0 0 17.75 22.32" style="enable-background:new 0 0 17.75 22.32;" xml:space="preserve">
<style type="text/css">
	.st0{fill:#101820;}
</style>
<g>
	<g>
		<g>
			<g>
				<path class="st0" d="M17.57,6.21l-6.07-6.04C11.4,0.06,11.26,0,11.1,0H2.86C1.28,0,0,1.28,0,2.86v16.6
					c0,1.58,1.28,2.86,2.86,2.86h12.02c1.58,0,2.86-1.28,2.86-2.86V6.61C17.74,6.46,17.68,6.32,17.57,6.21z M11.73,5.72V2l4.04,4.01
					h-3.75c-0.14,0.02-0.27-0.08-0.29-0.23C11.73,5.76,11.73,5.74,11.73,5.72z M16.6,19.46c0,0.95-0.77,1.72-1.72,1.72H2.86
					c-0.95,0-1.72-0.77-1.72-1.72V2.86c0-0.95,0.77-1.72,1.72-1.72h7.73v4.58c0,0.79,0.64,1.43,1.43,1.43h4.58V19.46z"/>
			</g>
		</g>
	</g>
	<g>
		<g id="Layer_1_2_">
			<g>
				<path class="st0" d="M13.69,12.89c-0.03-0.07-0.11-0.12-0.18-0.12h-0.6c-0.38-2.08-2.21-3.66-4.4-3.66
					c-2.47,0-4.47,2.01-4.47,4.47s2.01,4.47,4.47,4.47c1.59,0,3.08-0.86,3.87-2.24c0.11-0.19,0.05-0.44-0.15-0.56
					c-0.19-0.11-0.44-0.05-0.56,0.15c-0.65,1.13-1.87,1.83-3.17,1.83c-2.02,0-3.66-1.64-3.66-3.66c0-2.02,1.64-3.66,3.66-3.66
					c1.74,0,3.2,1.22,3.57,2.85h-0.6c-0.08,0-0.15,0.05-0.18,0.12c-0.03,0.07-0.02,0.16,0.03,0.22l1.02,1.22
					c0.04,0.05,0.1,0.07,0.16,0.07c0.06,0,0.12-0.03,0.16-0.07l1.02-1.22C13.72,13.05,13.73,12.96,13.69,12.89z"/>
				<path class="st0" d="M8.51,10.13c-0.22,0-0.41,0.18-0.41,0.41v2.47c-0.18,0.13-0.3,0.34-0.3,0.58c0,0.39,0.32,0.71,0.71,0.71
					c0.11,0,0.21-0.03,0.3-0.07l1.41,0.82c0.06,0.04,0.13,0.05,0.2,0.05c0.14,0,0.28-0.07,0.35-0.2c0.11-0.19,0.05-0.44-0.15-0.56
					l-1.42-0.82c-0.02-0.21-0.13-0.4-0.3-0.52v-2.47C8.91,10.31,8.73,10.13,8.51,10.13z M8.51,13.89c-0.17,0-0.3-0.14-0.3-0.3
					c0-0.17,0.14-0.3,0.3-0.3s0.3,0.14,0.3,0.3C8.81,13.76,8.68,13.89,8.51,13.89z"/>
			</g>
		</g>
	</g>
</g>
</svg>
