<?xml version="1.0" encoding="utf-8"?>
<!-- Generator: Adobe Illustrator 23.0.1, SVG Export Plug-In . SVG Version: 6.00 Build 0)  -->
<svg version="1.1" id="Layer_1" xmlns="http://www.w3.org/2000/svg" xmlns:xlink="http://www.w3.org/1999/xlink" x="0px" y="0px"
	 viewBox="0 0 17.75 23.79" style="enable-background:new 0 0 17.75 23.79;" xml:space="preserve">
<style type="text/css">
	.st0{fill:#101820;}
</style>
<g>
	<g>
		<path class="st0" d="M8.87,23.79c-0.47,0-0.92-0.2-1.23-0.55C6.86,22.37,0,14.56,0,8.87C0,3.98,3.98,0,8.87,0
			c4.89,0,8.87,3.98,8.87,8.87c0,2.45-1.26,5.58-3.75,9.3c-1.84,2.75-3.69,4.84-3.9,5.07C9.79,23.59,9.34,23.79,8.87,23.79z
			 M8.87,1.87c-3.86,0-7,3.14-7,7c0,2.04,1.19,4.9,3.43,8.26c1.51,2.26,3.07,4.09,3.57,4.67c0.5-0.58,2.06-2.41,3.57-4.67
			c2.25-3.36,3.43-6.22,3.43-8.26C15.87,5.01,12.73,1.87,8.87,1.87z M8.87,13.8c-2.72,0-4.93-2.21-4.93-4.93
			c0-2.72,2.21-4.93,4.93-4.93c2.72,0,4.93,2.21,4.93,4.93C13.8,11.59,11.59,13.8,8.87,13.8z M8.87,5.81
			c-1.69,0-3.06,1.37-3.06,3.06s1.37,3.06,3.06,3.06c1.69,0,3.06-1.37,3.06-3.06S10.56,5.81,8.87,5.81z"/>
	</g>
</g>
</svg>
